<svg width="24" height="24" viewBox="0 0 24 24" fill="none" xmlns="http://www.w3.org/2000/svg">
<g clip-path="url(#clip0_868_3280)">
<path d="M20.449 20.4495H16.893V14.8804C16.893 13.5525 16.8693 11.8429 15.0435 11.8429C13.1914 11.8429 12.908 13.2899 12.908 14.7838V20.4491H9.35204V8.99696H12.7658V10.562H12.8136C13.1552 9.97787 13.6489 9.49732 14.242 9.17154C14.8352 8.84576 15.5056 8.68697 16.1818 8.71206C19.786 8.71206 20.4505 11.0828 20.4505 14.167L20.449 20.4495ZM5.33953 7.43162C4.19982 7.43181 3.27572 6.508 3.27553 5.36828C3.27535 4.22856 4.19907 3.30447 5.33878 3.30428C6.4785 3.304 7.4026 4.22781 7.40278 5.36753C7.40288 5.91484 7.18557 6.43978 6.79863 6.82687C6.4117 7.21396 5.88685 7.4315 5.33953 7.43162ZM7.1176 20.4496H3.55782V8.99696H7.1175V20.4495L7.1176 20.4496ZM22.2219 0.00174674H1.77094C0.804377 -0.00912826 0.011721 0.765153 -9.15527e-05 1.73172V22.2679C0.0113459 23.235 0.803909 24.01 1.77085 23.9999H22.2219C23.1909 24.0119 23.9865 23.2368 23.9999 22.2679V1.73012C23.9861 0.761684 23.1904 -0.0125033 22.2219 0.00015299" fill="#0A66C2"/>
</g>
<defs>
<clipPath id="clip0_868_3280">
<rect width="24" height="24" fill="white"/>
</clipPath>
</defs>
</svg>
